<svg width="169" height="169" viewBox="0 0 169 169" fill="none" xmlns="http://www.w3.org/2000/svg">
<g clip-path="url(#clip0)">
<path d="M89.7553 132.379C84.8067 132.379 80.7798 136.406 80.7798 141.354C80.7798 146.303 84.8067 150.33 89.7553 150.33C94.7037 150.33 98.7309 146.303 98.7309 141.354C98.7309 136.406 94.7037 132.379 89.7553 132.379ZM89.7553 144.346C88.1038 144.346 86.7635 143.006 86.7635 141.354C86.7635 139.703 88.1038 138.362 89.7553 138.362C91.4069 138.362 92.7472 139.703 92.7472 141.354C92.7472 143.006 91.4069 144.346 89.7553 144.346Z" fill="#C9702F"/>
<path d="M89.7554 120.411C78.2069 120.411 68.8125 129.809 68.8125 141.354C68.8125 152.9 78.2069 162.297 89.7554 162.297C101.301 162.297 110.698 152.9 110.698 141.354C110.698 129.809 101.301 120.411 89.7554 120.411ZM89.7554 156.314C81.507 156.314 74.7962 149.603 74.7962 141.354C74.7962 133.106 81.507 126.395 89.7554 126.395C98.0039 126.395 104.715 133.106 104.715 141.354C104.715 149.603 98.0039 156.314 89.7554 156.314Z" fill="#C9702F"/>
<path d="M74.7962 90.481H68.8125V141.342H74.7962V90.481Z" fill="#C9702F"/>
<path d="M35.9322 17.5637C33.3262 12.7318 28.294 9.72217 22.7981 9.70996H0V15.6937H22.7918C26.086 15.7026 29.1016 17.5066 30.6664 20.4087L87.1224 124.824L92.3879 121.976L35.9322 17.5637Z" fill="#C9702F"/>
<path d="M166.131 108.822L106.279 141.719L109.16 146.961L169.012 114.064L166.131 108.822Z" fill="#C9702F"/>
<path d="M131.252 56.1045L104.32 8.23198C103.931 7.5379 103.285 7.0293 102.519 6.81675C101.753 6.59826 100.939 6.69695 100.245 7.08904L52.3726 34.0216C50.9336 34.8325 50.422 36.6573 51.2326 38.0963L78.1652 85.9718C78.554 86.6659 79.2035 87.1745 79.9662 87.3871C80.2326 87.459 80.5049 87.4977 80.7742 87.4977C81.2828 87.4977 81.7884 87.366 82.2402 87.1089L130.113 60.1792C131.555 59.3687 132.063 57.5435 131.252 56.1045ZM81.9109 80.4311L57.9134 37.7703L100.574 13.7698L124.569 56.4336L81.9109 80.4311Z" fill="#C9702F"/>
<path d="M94.8416 30.6228L87.3588 17.6683C86.5331 16.2382 84.699 15.7444 83.2719 16.5732L70.3173 24.0526C68.8873 24.8784 68.3965 26.7065 69.2222 28.1396L76.7017 41.0941C77.2552 42.0546 78.2605 42.5902 79.2955 42.5902C79.8041 42.5902 80.3187 42.4615 80.7883 42.1892L93.7458 34.7098C94.434 34.3147 94.9366 33.6625 95.1399 32.8939C95.3442 32.1248 95.2396 31.308 94.8416 30.6228ZM80.3909 35.5118L75.9033 27.7389L83.6762 23.2513L88.1641 31.0242L80.3909 35.5118Z" fill="#C9702F"/>
<path d="M158.17 103.977L131.237 56.1046C130.429 54.6656 128.608 54.1511 127.166 54.9646L79.293 81.8942C77.854 82.7051 77.3424 84.53 78.153 85.9689L105.086 133.844C105.474 134.539 106.121 135.047 106.887 135.26C107.153 135.332 107.422 135.37 107.695 135.37C108.203 135.37 108.709 135.242 109.155 134.984L157.03 108.052C157.724 107.663 158.233 107.017 158.445 106.251C158.658 105.488 158.562 104.668 158.17 103.977ZM108.834 128.304L84.8367 85.6429L127.498 61.6454L151.495 104.306L108.834 128.304Z" fill="#C9702F"/>
<path d="M121.75 78.5136L114.27 65.559C113.442 64.126 111.608 63.6352 110.184 64.464L97.229 71.9434C95.7989 72.7692 95.3081 74.5973 96.1339 76.0303L103.613 88.9849C104.167 89.9453 105.172 90.481 106.207 90.481C106.716 90.481 107.23 90.3523 107.7 90.08L120.654 82.6005C122.085 81.7748 122.576 79.9466 121.75 78.5136ZM107.3 83.4022L102.812 75.6293L110.585 71.1417L115.072 78.9146L107.3 83.4022Z" fill="#C9702F"/>
</g>
<defs>
<clipPath id="clip0">
<rect width="169" height="169" fill="white"/>
</clipPath>
</defs>
</svg>
